<svg height="2382" width="720" xmlns="http://www.w3.org/2000/svg">
<rect height="2382" fill="#555" width="720"></rect>
<text fill="#7f7" font-family="Courier New" font-size="12" xml:space="preserve">
<tspan x="10" y="26">14 megabytes installed</tspan>
<tspan x="10" y="42"></tspan>
<tspan x="10" y="58">node_modules</tspan>
<tspan x="10" y="74">└─┬ sqlite@2.5.0 </tspan>
<tspan x="10" y="90">  └─┬ sqlite3@3.1.8 </tspan>
<tspan x="10" y="106">    ├── nan@2.4.0 </tspan>
<tspan x="10" y="122">    └─┬ node-pre-gyp@0.6.31 </tspan>
<tspan x="10" y="138">      ├─┬ mkdirp@0.5.1 </tspan>
<tspan x="10" y="154">      │ └── minimist@0.0.8 </tspan>
<tspan x="10" y="170">      ├─┬ nopt@3.0.6 </tspan>
<tspan x="10" y="186">      │ └── abbrev@1.0.9 </tspan>
<tspan x="10" y="202">      ├─┬ npmlog@4.0.0 </tspan>
<tspan x="10" y="218">      │ ├─┬ are-we-there-yet@1.1.2 </tspan>
<tspan x="10" y="234">      │ │ ├── delegates@1.0.0 </tspan>
<tspan x="10" y="250">      │ │ └─┬ readable-stream@2.1.5 </tspan>
<tspan x="10" y="266">      │ │   ├── buffer-shims@1.0.0 </tspan>
<tspan x="10" y="282">      │ │   ├── core-util-is@1.0.2 </tspan>
<tspan x="10" y="298">      │ │   ├── inherits@2.0.3 </tspan>
<tspan x="10" y="314">      │ │   ├── isarray@1.0.0 </tspan>
<tspan x="10" y="330">      │ │   ├── process-nextick-args@1.0.7 </tspan>
<tspan x="10" y="346">      │ │   ├── string_decoder@0.10.31 </tspan>
<tspan x="10" y="362">      │ │   └── util-deprecate@1.0.2 </tspan>
<tspan x="10" y="378">      │ ├── console-control-strings@1.1.0 </tspan>
<tspan x="10" y="394">      │ ├─┬ gauge@2.6.0 </tspan>
<tspan x="10" y="410">      │ │ ├── aproba@1.0.4 </tspan>
<tspan x="10" y="426">      │ │ ├── has-color@0.1.7 </tspan>
<tspan x="10" y="442">      │ │ ├── has-unicode@2.0.1 </tspan>
<tspan x="10" y="458">      │ │ ├── object-assign@4.1.0 </tspan>
<tspan x="10" y="474">      │ │ ├── signal-exit@3.0.1 </tspan>
<tspan x="10" y="490">      │ │ ├─┬ string-width@1.0.2 </tspan>
<tspan x="10" y="506">      │ │ │ ├─┬ code-point-at@1.0.1 </tspan>
<tspan x="10" y="522">      │ │ │ │ └── number-is-nan@1.0.1 </tspan>
<tspan x="10" y="538">      │ │ │ └─┬ is-fullwidth-code-point@1.0.0 </tspan>
<tspan x="10" y="554">      │ │ │   └── number-is-nan@1.0.1 </tspan>
<tspan x="10" y="570">      │ │ ├─┬ strip-ansi@3.0.1 </tspan>
<tspan x="10" y="586">      │ │ │ └── ansi-regex@2.0.0 </tspan>
<tspan x="10" y="602">      │ │ └── wide-align@1.1.0 </tspan>
<tspan x="10" y="618">      │ └── set-blocking@2.0.0 </tspan>
<tspan x="10" y="634">      ├─┬ rc@1.1.6 </tspan>
<tspan x="10" y="650">      │ ├── deep-extend@0.4.1 </tspan>
<tspan x="10" y="666">      │ ├── ini@1.3.4 </tspan>
<tspan x="10" y="682">      │ ├── minimist@1.2.0 </tspan>
<tspan x="10" y="698">      │ └── strip-json-comments@1.0.4 </tspan>
<tspan x="10" y="714">      ├─┬ request@2.76.0 </tspan>
<tspan x="10" y="730">      │ ├── aws-sign2@0.6.0 </tspan>
<tspan x="10" y="746">      │ ├── aws4@1.5.0 </tspan>
<tspan x="10" y="762">      │ ├── caseless@0.11.0 </tspan>
<tspan x="10" y="778">      │ ├─┬ combined-stream@1.0.5 </tspan>
<tspan x="10" y="794">      │ │ └── delayed-stream@1.0.0 </tspan>
<tspan x="10" y="810">      │ ├── extend@3.0.0 </tspan>
<tspan x="10" y="826">      │ ├── forever-agent@0.6.1 </tspan>
<tspan x="10" y="842">      │ ├─┬ form-data@2.1.1 </tspan>
<tspan x="10" y="858">      │ │ └── asynckit@0.4.0 </tspan>
<tspan x="10" y="874">      │ ├─┬ har-validator@2.0.6 </tspan>
<tspan x="10" y="890">      │ │ ├─┬ chalk@1.1.3 </tspan>
<tspan x="10" y="906">      │ │ │ ├── ansi-styles@2.2.1 </tspan>
<tspan x="10" y="922">      │ │ │ ├── escape-string-regexp@1.0.5 </tspan>
<tspan x="10" y="938">      │ │ │ ├─┬ has-ansi@2.0.0 </tspan>
<tspan x="10" y="954">      │ │ │ │ └── ansi-regex@2.0.0 </tspan>
<tspan x="10" y="970">      │ │ │ ├─┬ strip-ansi@3.0.1 </tspan>
<tspan x="10" y="986">      │ │ │ │ └── ansi-regex@2.0.0 </tspan>
<tspan x="10" y="1002">      │ │ │ └── supports-color@2.0.0 </tspan>
<tspan x="10" y="1018">      │ │ ├─┬ commander@2.9.0 </tspan>
<tspan x="10" y="1034">      │ │ │ └── graceful-readlink@1.0.1 </tspan>
<tspan x="10" y="1050">      │ │ ├─┬ is-my-json-valid@2.15.0 </tspan>
<tspan x="10" y="1066">      │ │ │ ├── generate-function@2.0.0 </tspan>
<tspan x="10" y="1082">      │ │ │ ├─┬ generate-object-property@1.2.0 </tspan>
<tspan x="10" y="1098">      │ │ │ │ └── is-property@1.0.2 </tspan>
<tspan x="10" y="1114">      │ │ │ ├── jsonpointer@4.0.0 </tspan>
<tspan x="10" y="1130">      │ │ │ └── xtend@4.0.1 </tspan>
<tspan x="10" y="1146">      │ │ └─┬ pinkie-promise@2.0.1 </tspan>
<tspan x="10" y="1162">      │ │   └── pinkie@2.0.4 </tspan>
<tspan x="10" y="1178">      │ ├─┬ hawk@3.1.3 </tspan>
<tspan x="10" y="1194">      │ │ ├── boom@2.10.1 </tspan>
<tspan x="10" y="1210">      │ │ ├── cryptiles@2.0.5 </tspan>
<tspan x="10" y="1226">      │ │ ├── hoek@2.16.3 </tspan>
<tspan x="10" y="1242">      │ │ └── sntp@1.0.9 </tspan>
<tspan x="10" y="1258">      │ ├─┬ http-signature@1.1.1 </tspan>
<tspan x="10" y="1274">      │ │ ├── assert-plus@0.2.0 </tspan>
<tspan x="10" y="1290">      │ │ ├─┬ jsprim@1.3.1 </tspan>
<tspan x="10" y="1306">      │ │ │ ├── extsprintf@1.0.2 </tspan>
<tspan x="10" y="1322">      │ │ │ ├── json-schema@0.2.3 </tspan>
<tspan x="10" y="1338">      │ │ │ └── verror@1.3.6 </tspan>
<tspan x="10" y="1354">      │ │ └─┬ sshpk@1.10.1 </tspan>
<tspan x="10" y="1370">      │ │   ├── asn1@0.2.3 </tspan>
<tspan x="10" y="1386">      │ │   ├── assert-plus@1.0.0 </tspan>
<tspan x="10" y="1402">      │ │   ├── bcrypt-pbkdf@1.0.0 </tspan>
<tspan x="10" y="1418">      │ │   ├── dashdash@1.14.0 </tspan>
<tspan x="10" y="1434">      │ │   ├── ecc-jsbn@0.1.1 </tspan>
<tspan x="10" y="1450">      │ │   ├── getpass@0.1.6 </tspan>
<tspan x="10" y="1466">      │ │   ├── jodid25519@1.0.2 </tspan>
<tspan x="10" y="1482">      │ │   ├── jsbn@0.1.0 </tspan>
<tspan x="10" y="1498">      │ │   └── tweetnacl@0.14.3 </tspan>
<tspan x="10" y="1514">      │ ├── is-typedarray@1.0.0 </tspan>
<tspan x="10" y="1530">      │ ├── isstream@0.1.2 </tspan>
<tspan x="10" y="1546">      │ ├── json-stringify-safe@5.0.1 </tspan>
<tspan x="10" y="1562">      │ ├─┬ mime-types@2.1.12 </tspan>
<tspan x="10" y="1578">      │ │ └── mime-db@1.24.0 </tspan>
<tspan x="10" y="1594">      │ ├── node-uuid@1.4.7 </tspan>
<tspan x="10" y="1610">      │ ├── oauth-sign@0.8.2 </tspan>
<tspan x="10" y="1626">      │ ├── qs@6.3.0 </tspan>
<tspan x="10" y="1642">      │ ├── stringstream@0.0.5 </tspan>
<tspan x="10" y="1658">      │ ├─┬ tough-cookie@2.3.2 </tspan>
<tspan x="10" y="1674">      │ │ └── punycode@1.4.1 </tspan>
<tspan x="10" y="1690">      │ └── tunnel-agent@0.4.3 </tspan>
<tspan x="10" y="1706">      ├─┬ rimraf@2.5.4 </tspan>
<tspan x="10" y="1722">      │ └─┬ glob@7.1.1 </tspan>
<tspan x="10" y="1738">      │   ├── fs.realpath@1.0.0 </tspan>
<tspan x="10" y="1754">      │   ├─┬ inflight@1.0.6 </tspan>
<tspan x="10" y="1770">      │   │ └── wrappy@1.0.2 </tspan>
<tspan x="10" y="1786">      │   ├── inherits@2.0.3 </tspan>
<tspan x="10" y="1802">      │   ├─┬ minimatch@3.0.3 </tspan>
<tspan x="10" y="1818">      │   │ └─┬ brace-expansion@1.1.6 </tspan>
<tspan x="10" y="1834">      │   │   ├── balanced-match@0.4.2 </tspan>
<tspan x="10" y="1850">      │   │   └── concat-map@0.0.1 </tspan>
<tspan x="10" y="1866">      │   ├─┬ once@1.4.0 </tspan>
<tspan x="10" y="1882">      │   │ └── wrappy@1.0.2 </tspan>
<tspan x="10" y="1898">      │   └── path-is-absolute@1.0.1 </tspan>
<tspan x="10" y="1914">      ├── semver@5.3.0 </tspan>
<tspan x="10" y="1930">      ├─┬ tar@2.2.1 </tspan>
<tspan x="10" y="1946">      │ ├── block-stream@0.0.9 </tspan>
<tspan x="10" y="1962">      │ ├─┬ fstream@1.0.10 </tspan>
<tspan x="10" y="1978">      │ │ └── graceful-fs@4.1.9 </tspan>
<tspan x="10" y="1994">      │ └── inherits@2.0.3 </tspan>
<tspan x="10" y="2010">      └─┬ tar-pack@3.3.0 </tspan>
<tspan x="10" y="2026">        ├─┬ debug@2.2.0 </tspan>
<tspan x="10" y="2042">        │ └── ms@0.7.1 </tspan>
<tspan x="10" y="2058">        ├─┬ fstream@1.0.10 </tspan>
<tspan x="10" y="2074">        │ ├── graceful-fs@4.1.9 </tspan>
<tspan x="10" y="2090">        │ └── inherits@2.0.3 </tspan>
<tspan x="10" y="2106">        ├─┬ fstream-ignore@1.0.5 </tspan>
<tspan x="10" y="2122">        │ ├── inherits@2.0.3 </tspan>
<tspan x="10" y="2138">        │ └─┬ minimatch@3.0.3 </tspan>
<tspan x="10" y="2154">        │   └─┬ brace-expansion@1.1.6 </tspan>
<tspan x="10" y="2170">        │     ├── balanced-match@0.4.2 </tspan>
<tspan x="10" y="2186">        │     └── concat-map@0.0.1 </tspan>
<tspan x="10" y="2202">        ├─┬ once@1.3.3 </tspan>
<tspan x="10" y="2218">        │ └── wrappy@1.0.2 </tspan>
<tspan x="10" y="2234">        ├─┬ readable-stream@2.1.5 </tspan>
<tspan x="10" y="2250">        │ ├── buffer-shims@1.0.0 </tspan>
<tspan x="10" y="2266">        │ ├── core-util-is@1.0.2 </tspan>
<tspan x="10" y="2282">        │ ├── inherits@2.0.3 </tspan>
<tspan x="10" y="2298">        │ ├── isarray@1.0.0 </tspan>
<tspan x="10" y="2314">        │ ├── process-nextick-args@1.0.7 </tspan>
<tspan x="10" y="2330">        │ ├── string_decoder@0.10.31 </tspan>
<tspan x="10" y="2346">        │ └── util-deprecate@1.0.2 </tspan>
<tspan x="10" y="2362">        └── uid-number@0.0.6</tspan>
</text>
</svg>
